<?xml version="1.0" encoding="utf-8"?>
<!-- Generator: Adobe Illustrator 25.2.0, SVG Export Plug-In . SVG Version: 6.00 Build 0)  -->
<svg version="1.1" xmlns="http://www.w3.org/2000/svg" xmlns:xlink="http://www.w3.org/1999/xlink" x="0px" y="0px"
	 viewBox="0 0 150 150" style="enable-background:new 0 0 150 150;" xml:space="preserve">
<style type="text/css">
	.st0{fill:#FFFFFF;}
</style>
<g id="Layer_1">
	<g>
		<g>
			<path class="st0" d="M17.1,147.1c18.4-18.4,36.8-36.8,55.2-55.2c1.9-1.9,3.9-3.9,5.8-5.8c0.5-0.5,1-1,1.5-1.5
				c0.8-0.8,1.1-0.5-0.2,0.3c-1.7,0.5-3.4,0.9-5,1.4c0.4,0,0.9,0,1.3,0c-1.7-0.5-3.4-0.9-5-1.4c-1.9-1.1-0.1-0.1,0.8,0.7
				c1.6,1.5,3.1,3.1,4.7,4.6c5.1,5,10.2,10,15.3,15c11.5,11.3,23,22.7,34.5,34c2.7,2.6,5.3,5.2,8,7.9c9.2,9,23.3-5.1,14.1-14.1
				c-19.2-18.9-38.4-37.8-57.6-56.7c-2.5-2.4-4.8-5.1-7.6-7.3c-7.7-5.9-14.6-1.4-20.2,4.2c-10.8,10.8-21.6,21.6-32.4,32.4
				c-9.1,9.1-18.3,18.3-27.4,27.4C-6.2,142,8,156.2,17.1,147.1L17.1,147.1z"/>
		</g>
	</g>
</g>
<g id="Layer_2">
</g>
</svg>
